<mxfile host="app.diagrams.net" modified="2020-12-02T17:02:43.208Z" agent="5.0 (Macintosh; Intel Mac OS X 10_15_6) AppleWebKit/605.1.15 (KHTML, like Gecko) Version/14.0.1 Safari/605.1.15" etag="nEsDCAX0QV6Q1KqaN55t" version="13.10.4" type="github">
  <diagram id="C1PJuX5tCt2vGxhJqiDe" name="Page-1">
    <mxGraphModel dx="946" dy="645" grid="1" gridSize="10" guides="1" tooltips="1" connect="1" arrows="1" fold="1" page="1" pageScale="1" pageWidth="827" pageHeight="1169" math="0" shadow="0">
      <root>
        <mxCell id="0" />
        <mxCell id="1" parent="0" />
        <mxCell id="jE_7edmESBOcZlCv-IzX-11" style="edgeStyle=orthogonalEdgeStyle;rounded=0;orthogonalLoop=1;jettySize=auto;html=1;" parent="1" source="CkfNhNpMdFxF0ozeZBZx-1" target="jE_7edmESBOcZlCv-IzX-4" edge="1">
          <mxGeometry relative="1" as="geometry" />
        </mxCell>
        <mxCell id="jE_7edmESBOcZlCv-IzX-12" style="edgeStyle=orthogonalEdgeStyle;rounded=0;orthogonalLoop=1;jettySize=auto;html=1;entryX=0;entryY=0.5;entryDx=0;entryDy=0;" parent="1" source="CkfNhNpMdFxF0ozeZBZx-1" target="jE_7edmESBOcZlCv-IzX-7" edge="1">
          <mxGeometry relative="1" as="geometry" />
        </mxCell>
        <mxCell id="CkfNhNpMdFxF0ozeZBZx-1" value="initial data" style="ellipse;whiteSpace=wrap;html=1;aspect=fixed;fillColor=#dae8fc;strokeColor=#6c8ebf;" parent="1" vertex="1">
          <mxGeometry x="120" y="260" width="60" height="60" as="geometry" />
        </mxCell>
        <mxCell id="CkfNhNpMdFxF0ozeZBZx-13" style="edgeStyle=orthogonalEdgeStyle;rounded=0;orthogonalLoop=1;jettySize=auto;html=1;dashed=1;endArrow=open;endFill=0;entryX=0;entryY=0.5;entryDx=0;entryDy=0;entryPerimeter=0;" parent="1" source="CkfNhNpMdFxF0ozeZBZx-14" target="CkfNhNpMdFxF0ozeZBZx-17" edge="1">
          <mxGeometry relative="1" as="geometry">
            <mxPoint x="540" y="90" as="targetPoint" />
          </mxGeometry>
        </mxCell>
        <mxCell id="CkfNhNpMdFxF0ozeZBZx-14" value="after FS&amp;nbsp;" style="ellipse;whiteSpace=wrap;html=1;aspect=fixed;fillColor=#dae8fc;strokeColor=#6c8ebf;" parent="1" vertex="1">
          <mxGeometry x="410" y="60" width="60" height="60" as="geometry" />
        </mxCell>
        <mxCell id="CkfNhNpMdFxF0ozeZBZx-17" value="Feature Selection&amp;nbsp;" style="whiteSpace=wrap;html=1;shape=mxgraph.basic.document;fillColor=#f8cecc;strokeColor=#b85450;" parent="1" vertex="1">
          <mxGeometry x="560" y="65" width="60" height="50" as="geometry" />
        </mxCell>
        <mxCell id="jE_7edmESBOcZlCv-IzX-9" style="edgeStyle=orthogonalEdgeStyle;rounded=0;orthogonalLoop=1;jettySize=auto;html=1;entryX=0;entryY=0.5;entryDx=0;entryDy=0;" parent="1" source="CkfNhNpMdFxF0ozeZBZx-18" target="CkfNhNpMdFxF0ozeZBZx-14" edge="1">
          <mxGeometry relative="1" as="geometry" />
        </mxCell>
        <mxCell id="jE_7edmESBOcZlCv-IzX-13" value="Feature selection" style="edgeLabel;html=1;align=center;verticalAlign=middle;resizable=0;points=[];" parent="jE_7edmESBOcZlCv-IzX-9" vertex="1" connectable="0">
          <mxGeometry x="0.312" y="2" relative="1" as="geometry">
            <mxPoint x="26" y="-8" as="offset" />
          </mxGeometry>
        </mxCell>
        <mxCell id="jE_7edmESBOcZlCv-IzX-10" style="edgeStyle=orthogonalEdgeStyle;rounded=0;orthogonalLoop=1;jettySize=auto;html=1;entryX=0;entryY=0.5;entryDx=0;entryDy=0;" parent="1" source="CkfNhNpMdFxF0ozeZBZx-18" target="CkfNhNpMdFxF0ozeZBZx-30" edge="1">
          <mxGeometry relative="1" as="geometry" />
        </mxCell>
        <mxCell id="jE_7edmESBOcZlCv-IzX-14" value="Feature Extraction" style="edgeLabel;html=1;align=center;verticalAlign=middle;resizable=0;points=[];" parent="jE_7edmESBOcZlCv-IzX-10" vertex="1" connectable="0">
          <mxGeometry x="0.6462" y="-2" relative="1" as="geometry">
            <mxPoint x="-14" y="8" as="offset" />
          </mxGeometry>
        </mxCell>
        <mxCell id="CkfNhNpMdFxF0ozeZBZx-18" value="Without outliers" style="ellipse;whiteSpace=wrap;html=1;aspect=fixed;fillColor=#dae8fc;strokeColor=#6c8ebf;" parent="1" vertex="1">
          <mxGeometry x="120" y="90" width="60" height="60" as="geometry" />
        </mxCell>
        <mxCell id="CkfNhNpMdFxF0ozeZBZx-19" value="" style="endArrow=classic;html=1;exitX=0.5;exitY=0;exitDx=0;exitDy=0;entryX=0.5;entryY=1;entryDx=0;entryDy=0;" parent="1" source="CkfNhNpMdFxF0ozeZBZx-1" target="CkfNhNpMdFxF0ozeZBZx-18" edge="1">
          <mxGeometry width="50" height="50" relative="1" as="geometry">
            <mxPoint x="480" y="240" as="sourcePoint" />
            <mxPoint x="530" y="190" as="targetPoint" />
          </mxGeometry>
        </mxCell>
        <mxCell id="CkfNhNpMdFxF0ozeZBZx-20" value="Outliers remotion" style="edgeLabel;html=1;align=center;verticalAlign=middle;resizable=0;points=[];rotation=0;" parent="CkfNhNpMdFxF0ozeZBZx-19" vertex="1" connectable="0">
          <mxGeometry x="-0.1669" relative="1" as="geometry">
            <mxPoint y="1.0000000000000018" as="offset" />
          </mxGeometry>
        </mxCell>
        <mxCell id="CkfNhNpMdFxF0ozeZBZx-29" style="edgeStyle=orthogonalEdgeStyle;rounded=0;orthogonalLoop=1;jettySize=auto;html=1;dashed=1;endArrow=open;endFill=0;" parent="1" source="CkfNhNpMdFxF0ozeZBZx-30" target="CkfNhNpMdFxF0ozeZBZx-45" edge="1">
          <mxGeometry relative="1" as="geometry" />
        </mxCell>
        <mxCell id="CkfNhNpMdFxF0ozeZBZx-30" value="after Extraction" style="ellipse;whiteSpace=wrap;html=1;aspect=fixed;fillColor=#dae8fc;strokeColor=#6c8ebf;" parent="1" vertex="1">
          <mxGeometry x="410" y="130" width="60" height="60" as="geometry" />
        </mxCell>
        <mxCell id="CkfNhNpMdFxF0ozeZBZx-45" value="Feature Extraction" style="whiteSpace=wrap;html=1;shape=mxgraph.basic.document;fillColor=#f8cecc;strokeColor=#b85450;" parent="1" vertex="1">
          <mxGeometry x="560" y="135" width="60" height="50" as="geometry" />
        </mxCell>
        <mxCell id="jE_7edmESBOcZlCv-IzX-3" style="edgeStyle=orthogonalEdgeStyle;rounded=0;orthogonalLoop=1;jettySize=auto;html=1;dashed=1;endArrow=open;endFill=0;entryX=0;entryY=0.5;entryDx=0;entryDy=0;entryPerimeter=0;" parent="1" source="jE_7edmESBOcZlCv-IzX-4" target="jE_7edmESBOcZlCv-IzX-5" edge="1">
          <mxGeometry relative="1" as="geometry">
            <mxPoint x="550" y="250" as="targetPoint" />
          </mxGeometry>
        </mxCell>
        <mxCell id="jE_7edmESBOcZlCv-IzX-4" value="after FS&amp;nbsp;" style="ellipse;whiteSpace=wrap;html=1;aspect=fixed;fillColor=#dae8fc;strokeColor=#6c8ebf;" parent="1" vertex="1">
          <mxGeometry x="410" y="220" width="60" height="60" as="geometry" />
        </mxCell>
        <mxCell id="jE_7edmESBOcZlCv-IzX-5" value="Feature Selection&amp;nbsp;" style="whiteSpace=wrap;html=1;shape=mxgraph.basic.document;fillColor=#f8cecc;strokeColor=#b85450;" parent="1" vertex="1">
          <mxGeometry x="560" y="225" width="60" height="50" as="geometry" />
        </mxCell>
        <mxCell id="jE_7edmESBOcZlCv-IzX-6" style="edgeStyle=orthogonalEdgeStyle;rounded=0;orthogonalLoop=1;jettySize=auto;html=1;dashed=1;endArrow=open;endFill=0;" parent="1" source="jE_7edmESBOcZlCv-IzX-7" target="jE_7edmESBOcZlCv-IzX-8" edge="1">
          <mxGeometry relative="1" as="geometry" />
        </mxCell>
        <mxCell id="jE_7edmESBOcZlCv-IzX-7" value="after Extraction" style="ellipse;whiteSpace=wrap;html=1;aspect=fixed;fillColor=#dae8fc;strokeColor=#6c8ebf;" parent="1" vertex="1">
          <mxGeometry x="410" y="290" width="60" height="60" as="geometry" />
        </mxCell>
        <mxCell id="jE_7edmESBOcZlCv-IzX-8" value="Feature Extraction" style="whiteSpace=wrap;html=1;shape=mxgraph.basic.document;fillColor=#f8cecc;strokeColor=#b85450;" parent="1" vertex="1">
          <mxGeometry x="560" y="295" width="60" height="50" as="geometry" />
        </mxCell>
        <mxCell id="jE_7edmESBOcZlCv-IzX-15" value="Feature selection" style="edgeLabel;html=1;align=center;verticalAlign=middle;resizable=0;points=[];" parent="1" vertex="1" connectable="0">
          <mxGeometry x="340" y="240" as="geometry" />
        </mxCell>
        <mxCell id="jE_7edmESBOcZlCv-IzX-16" value="Feature Extraction" style="edgeLabel;html=1;align=center;verticalAlign=middle;resizable=0;points=[];" parent="1" vertex="1" connectable="0">
          <mxGeometry x="340" y="330" as="geometry" />
        </mxCell>
        <mxCell id="CFGXcJUIOUCEXUBwejLG-1" value="DATASET 2" style="text;html=1;align=center;verticalAlign=middle;resizable=0;points=[];autosize=1;fontStyle=1;fillColor=#60a917;strokeColor=#2D7600;fontColor=#ffffff;fontSize=18;" vertex="1" parent="1">
          <mxGeometry x="55" y="10" width="110" height="30" as="geometry" />
        </mxCell>
      </root>
    </mxGraphModel>
  </diagram>
</mxfile>
